# xmcd CD database file
#
# Track frame offsets:
#	150
#	9765
#	23232
#	33372
#	43612
#	52345
#	62432
#	72155
#	91335
#	101787
#	111815
#	120717
#	126735
#	135722
#	142632
#	150817
#	156810
#	161872
#	165195
#	168012
#	173045
#	185372
#	191580
#	196040
#	202322
#
# Disc length: 2859 seconds
#
# Revision: 0
# Processed by: cddbd v1.5.1PL0 Copyright (c) Steve Scherf et al.
# Submitted via: CDex 1.51
#
DISCID=490b2919
DTITLE=Robert Normann - Volume 4
DYEAR=1988
DGENRE=Jazz
TTITLE0=Tenderly
TTITLE1=Body and Soul
TTITLE2=Fascination
TTITLE3=Lullaby of the Leaves
TTITLE4=Jalousie 
TTITLE5=Vennlig Lat
TTITLE6=Gammel Vise
TTITLE7=Kjaerlighetssmil
TTITLE8=Lullaby of Birdland
TTITLE9=Two Sleepy People
TTITLE10=Pluto
TTITLE11=Lullaby of the Leaves
TTITLE12=Little Man You've Had a Busy Day
TTITLE13=Nar Det Gar Mot Var
TTITLE14=All the Things You Are
TTITLE15=When You Wish Upon a Star
TTITLE16=The Way You Look Tonight
TTITLE17=Top Hat
TTITLE18=A Fine Romance
TTITLE19=Let's Face the Music and Dance
TTITLE20=I've Got My Love To Keep Me Warm
TTITLE21=Cheek to Cheek 
TTITLE22=Walkin' My Baby Back Home
TTITLE23=Oppvaskbenken
TTITLE24=Perpetuum Mobile
EXTD=YEAR: 1988
EXTT0=
EXTT1=
EXTT2=
EXTT3=
EXTT4=
EXTT5=
EXTT6=
EXTT7=
EXTT8=
EXTT9=
EXTT10=
EXTT11=
EXTT12=
EXTT13=
EXTT14=
EXTT15=
EXTT16=
EXTT17=
EXTT18=
EXTT19=
EXTT20=
EXTT21=
EXTT22=
EXTT23=
EXTT24=
PLAYORDER=
